<svg width="18" height="18" viewBox="0 0 18 18" fill="none" xmlns="http://www.w3.org/2000/svg">
<path fill-rule="evenodd" clip-rule="evenodd" d="M8.47876 15.6667H9.52126V15.0275C9.52126 14.2483 10.0004 13.5483 10.7413 13.2425C11.5079 12.9233 12.3454 13.08 12.8971 13.635L13.3463 14.0858L14.0863 13.3458L13.6321 12.8925C13.0796 12.3408 12.9238 11.5042 13.2346 10.7617C13.2346 10.7617 13.2354 10.7608 13.2354 10.76L13.2446 10.7367C13.5479 10.0008 14.2488 9.52082 15.0279 9.52082H15.6663V8.47916H15.0279C14.2488 8.47916 13.5479 7.99999 13.2429 7.25916C12.9221 6.49249 13.0796 5.65499 13.6346 5.10249L14.0854 4.65332L13.3463 3.91416L12.8921 4.36832C12.3404 4.91999 11.5046 5.07582 10.7621 4.76582C10.0013 4.45166 9.52126 3.75166 9.52126 2.97249V2.33332H8.47876V2.97249C8.47876 3.75166 7.99959 4.45166 7.25876 4.75749C6.49293 5.07832 5.65543 4.92082 5.10293 4.36499L4.65376 3.91416L3.91376 4.65416L4.36793 5.10749C4.91959 5.65916 5.07626 6.49582 4.76543 7.23832C4.45209 7.99916 3.75126 8.47916 2.97209 8.47916H2.33293V9.52082H2.97209C3.75126 9.52082 4.45209 9.99999 4.75709 10.7408C5.07793 11.5075 4.92043 12.345 4.36543 12.8975L3.91459 13.3467L4.65376 14.0858L5.10793 13.6317C5.65959 13.08 6.49543 12.9242 7.23793 13.2342C7.99876 13.5483 8.47876 14.2483 8.47876 15.0275V15.6667ZM9.78543 17.3333H8.20876C7.43876 17.3333 6.81209 16.7067 6.81209 15.9367V15.0275C6.81209 14.905 6.71459 14.8208 6.62293 14.7833C6.50293 14.7342 6.37459 14.7242 6.28626 14.81L5.64459 15.4525C5.09793 15.9975 4.20959 15.9992 3.66376 15.4525L2.54709 14.3358C2.28209 14.0708 2.13709 13.7192 2.13709 13.3442C2.13793 12.97 2.28376 12.6183 2.54959 12.3533L3.18959 11.7158C3.27709 11.6283 3.26793 11.5 3.22876 11.4075C3.17876 11.285 3.09543 11.1875 2.97209 11.1875H2.06876C1.29543 11.1875 0.66626 10.5592 0.66626 9.78582V8.20916C0.66626 7.43832 1.29293 6.81249 2.06376 6.81249H2.97209C3.09459 6.81249 3.17876 6.71416 3.21626 6.62249C3.26626 6.50249 3.27626 6.37332 3.18959 6.28666L2.54709 5.64499C2.00209 5.09749 2.00209 4.20916 2.54709 3.66416L3.66376 2.54749C3.92876 2.28249 4.27959 2.13749 4.65376 2.13749H4.65543C5.02959 2.13749 5.38209 2.28332 5.64626 2.54916L6.28376 3.18999C6.37126 3.27832 6.50043 3.26832 6.59293 3.22916C6.71459 3.17832 6.81209 3.09499 6.81209 2.97249V2.06916C6.81209 1.29582 7.44126 0.666656 8.21459 0.666656H9.79126C10.5613 0.666656 11.1879 1.29332 11.1879 2.06332V2.97249C11.1879 3.09499 11.2854 3.17916 11.3771 3.21666C11.4979 3.26666 11.6263 3.27749 11.7138 3.18999L12.3554 2.54749C12.9021 2.00249 13.7904 2.00082 14.3363 2.54749L15.4538 3.66499C15.7188 3.92916 15.8638 4.28082 15.8629 4.65582C15.8629 5.02916 15.7171 5.38166 15.4513 5.64582L14.8104 6.28416C14.7229 6.37166 14.7321 6.49999 14.7713 6.59249C14.8213 6.71499 14.9046 6.81249 15.0279 6.81249H15.9313C16.7046 6.81249 17.3329 7.44082 17.3329 8.21416V9.79082C17.3329 10.5617 16.7071 11.1875 15.9363 11.1875H15.0279C14.9054 11.1875 14.8213 11.2858 14.7838 11.3775C14.7829 11.3783 14.7729 11.4033 14.7721 11.405C14.7338 11.4975 14.7238 11.6267 14.8104 11.7133L15.4529 12.355C15.9979 12.9025 15.9979 13.7908 15.4529 14.3358L14.3363 15.4525C14.0713 15.7175 13.7204 15.8625 13.3463 15.8625H13.3446C12.9704 15.8625 12.6179 15.7167 12.3538 15.4508L11.7163 14.81C11.6288 14.7225 11.4988 14.7325 11.4071 14.7708C11.2854 14.8217 11.1879 14.905 11.1879 15.0275V15.9308C11.1879 16.7042 10.5588 17.3333 9.78543 17.3333ZM9.00001 7.74999C8.31084 7.74999 7.75001 8.31082 7.75001 8.99999C7.75001 9.68916 8.31084 10.25 9.00001 10.25C9.68918 10.25 10.25 9.68916 10.25 8.99999C10.25 8.31082 9.68918 7.74999 9.00001 7.74999ZM9.00001 11.9167C7.39168 11.9167 6.08334 10.6083 6.08334 8.99999C6.08334 7.39166 7.39168 6.08332 9.00001 6.08332C10.6083 6.08332 11.9167 7.39166 11.9167 8.99999C11.9167 10.6083 10.6083 11.9167 9.00001 11.9167Z" fill="#666E7D"/>
</svg>
